<?xml version="1.0" encoding="UTF-8"?>
<svg id="Layer_2" data-name="Layer 2" xmlns="http://www.w3.org/2000/svg" viewBox="0 0 499.85 500">
  <defs>
    <style>
      .cls-1 {
        fill: #333;
      }

      .cls-2 {
        fill: #ff1d25;
      }
    </style>
  </defs>
  <g id="Layer_1-2" data-name="Layer 1">
    <path class="cls-2" d="M250,50c106.08,0,193.14,83.02,199.61,187.5h50.08C493.18,105.24,383.88,0,250,0,185.46,0,126.63,24.45,82.28,64.6l35.48,35.48c35.28-31.15,81.59-50.08,132.24-50.08Z"/>
    <path class="cls-1" d="M250,450c-110.28,0-200-89.72-200-200,0-50.65,18.93-96.96,50.08-132.24l-35.48-35.48C24.45,126.63,0,185.46,0,250c0,138.07,111.93,250,250,250s243.18-105.24,249.69-237.5h-50.08c-6.47,104.48-93.53,187.5-199.61,187.5Z"/>
    <path class="cls-1" d="M250,110c72.99,0,133.11,56.13,139.44,127.5h50.15c-6.46-98.97-89.02-177.5-189.59-177.5-47.89,0-91.71,17.82-125.16,47.16l35.45,35.45c24.31-20.35,55.61-32.61,89.71-32.61Z"/>
    <path class="cls-2" d="M250,390c-77.2,0-140-62.8-140-140,0-34.1,12.26-65.4,32.61-89.71l-35.45-35.45c-29.34,33.45-47.16,77.27-47.16,125.16,0,104.77,85.23,190,190,190s183.13-78.53,189.59-177.5h-50.15c-6.33,71.37-66.45,127.5-139.44,127.5Z"/>
    <path class="cls-1" d="M499.85,250c0,1.67-.02,3.34-.05,5H247.93l-1.47-1.46L69.64,76.72c2.31-2.4,4.67-4.76,7.08-7.07L252.07,245h247.73c.03,1.66,.05,3.33,.05,5Z"/>
    <path class="cls-2" d="M499.85,250c0,1.67-.02,3.34-.05,5H247.93l4.14-10h247.73c.03,1.66,.05,3.33,.05,5Z"/>
    <path class="cls-1" d="M252.07,245l-4.14,10L69.64,76.72c2.31-2.4,4.67-4.76,7.08-7.07L252.07,245Z"/>
    <g>
      <path class="cls-2" d="M284.13,162.32v47.99h-13.61v-47.99h13.61Z"/>
      <path class="cls-2" d="M325.05,162.32v47.99h-13.61v-47.99h13.61Z"/>
    </g>
    <g>
      <path class="cls-1" d="M183.82,276.1v47.99h-13.61v-47.99h13.61Z"/>
      <path class="cls-1" d="M230.97,276.1v13.78h-11.81l-.63,2.18c4.31,1.24,7.5,3.04,9.56,5.38,2.84,3.19,4.25,7.01,4.25,11.46,0,4.71-1.73,8.62-5.19,11.72-3.46,3.11-7.81,4.66-13.06,4.66-3.54,0-7.03-.93-10.48-2.78v-11.81c2.74,1.34,5.16,2,7.24,2s3.86-.49,5.12-1.48,1.88-2.32,1.88-4.01c0-1.9-.97-3.5-2.9-4.82-1.93-1.31-4.32-1.97-7.15-1.97-1.08,0-2.51,.2-4.29,.6l5.17-24.93h22.29Z"/>
    </g>
  </g>
</svg>